HIERARCHY
ROOT Hips
{
	OFFSET 0.000000 0.000000 0.000000
	CHANNELS 6 Xposition Yposition Zposition Xrotation Yrotation Zrotation
	JOINT LeftUpLeg_virtual
	{
		OFFSET 0.000000 0.000000 0.000000
		CHANNELS 3 Xrotation Yrotation Zrotation
		JOINT LeftUpLeg
		{
			OFFSET 10.205400 -3.823500 0.155100
			CHANNELS 3 Xrotation Yrotation Zrotation
			JOINT LeftLeg
			{
				OFFSET 0.708757 -12.982077 0.567790
				CHANNELS 3 Xrotation Yrotation Zrotation
				JOINT LeftFoot
				{
					OFFSET -0.708756 -10.717838 -2.184338
					CHANNELS 3 Xrotation Yrotation Zrotation
					JOINT LeftToeBase
					{
						OFFSET 0.108149 -7.191104 7.560241
						CHANNELS 3 Xrotation Yrotation Zrotation
						JOINT LeftToe_End
						{
							OFFSET 0.070230 0.081724 4.490308
							CHANNELS 3 Xrotation Yrotation Zrotation
							End Site
							{
								OFFSET 0 0 0
							}
						}
					}
				}
			}
		}
	}
	JOINT RightUpLeg_virtual
	{
		OFFSET 0.000000 0.000000 0.000000
		CHANNELS 3 Xrotation Yrotation Zrotation
		JOINT RightUpLeg
		{
			OFFSET -10.205400 -3.823500 0.005500
			CHANNELS 3 Xrotation Yrotation Zrotation
			JOINT RightLeg
			{
				OFFSET -0.708756 -12.982134 0.610632
				CHANNELS 3 Xrotation Yrotation Zrotation
				JOINT RightFoot
				{
					OFFSET 0.708754 -10.717769 -1.945823
					CHANNELS 3 Xrotation Yrotation Zrotation
					JOINT RightToeBase
					{
						OFFSET -0.108140 -7.191069 7.372968
						CHANNELS 3 Xrotation Yrotation Zrotation
						JOINT RightToe_End
						{
							OFFSET -0.070227 0.081735 4.479403
							CHANNELS 3 Xrotation Yrotation Zrotation
							End Site
							{
								OFFSET 0 0 0
							}
						}
					}
				}
			}
		}
	}
	JOINT Spine_virtual
	{
		OFFSET 0.000000 0.000000 0.000000
		CHANNELS 3 Xrotation Yrotation Zrotation
		JOINT Spine
		{
			OFFSET 0.000000 6.876099 0.125700
			CHANNELS 3 Xrotation Yrotation Zrotation
			JOINT Spine1
			{
				OFFSET 0.000000 5.730043 0.104720
				CHANNELS 3 Xrotation Yrotation Zrotation
				JOINT Spine1_split
				{
					OFFSET 0.000000 5.730043 0.104720
					CHANNELS 3 Xrotation Yrotation Zrotation
					JOINT Spine2
					{
						OFFSET 0.000000 5.730043 0.104720
						CHANNELS 3 Xrotation Yrotation Zrotation
						JOINT Neck_virtual
						{
							OFFSET 0.000000 0.000000 0.000000
							CHANNELS 3 Xrotation Yrotation Zrotation
							JOINT Neck
							{
								OFFSET 0.000000 10.314075 0.188496
								CHANNELS 3 Xrotation Yrotation Zrotation
								JOINT Head
								{
									OFFSET 0.000000 7.643700 -2.377400
									CHANNELS 3 Xrotation Yrotation Zrotation
									JOINT HeadTop_End
									{
										OFFSET 0.000000 43.788605 -13.619600
										CHANNELS 3 Xrotation Yrotation Zrotation
										End Site
										{
											OFFSET 0 0 0
										}
									}
								}
							}
						}
						JOINT LeftShoulder_virtual
						{
							OFFSET 0.000000 0.000000 0.000000
							CHANNELS 3 Xrotation Yrotation Zrotation
							JOINT LeftShoulder
							{
								OFFSET 2.196100 4.412489 0.087492
								CHANNELS 3 Xrotation Yrotation Zrotation
								JOINT LeftShoulder_split
								{
									OFFSET 2.196100 4.412489 0.087492
									CHANNELS 3 Xrotation Yrotation Zrotation
									JOINT LeftArm
									{
										OFFSET 8.771219 -2.981674 -0.026999
										CHANNELS 3 Xrotation Yrotation Zrotation
										JOINT LeftForeArm
										{
											OFFSET 8.512804 0.000000 -0.000000
											CHANNELS 3 Xrotation Yrotation Zrotation
											JOINT LeftHand
											{
												OFFSET 18.484802 0.000000 -0.000000
												CHANNELS 3 Xrotation Yrotation Zrotation
												End Site
												{
													OFFSET 0 0 0
												}
											}
										}
									}
								}
							}
						}
						JOINT RightShoulder_virtual
						{
							OFFSET 0.000000 0.000000 0.000000
							CHANNELS 3 Xrotation Yrotation Zrotation
							JOINT RightShoulder
							{
								OFFSET -2.196100 4.412496 0.070690
								CHANNELS 3 Xrotation Yrotation Zrotation
								JOINT RightShoulder_split
								{
									OFFSET -2.196100 4.412496 0.070690
									CHANNELS 3 Xrotation Yrotation Zrotation
									JOINT RightArm
									{
										OFFSET -8.771282 -2.981682 -0.094208
										CHANNELS 3 Xrotation Yrotation Zrotation
										JOINT RightForeArm
										{
											OFFSET -8.494598 0.000000 0.000000
											CHANNELS 3 Xrotation Yrotation Zrotation
											JOINT RightHand
											{
												OFFSET -18.483803 0.000000 0.000001
												CHANNELS 3 Xrotation Yrotation Zrotation
												End Site
												{
													OFFSET 0 0 0
												}
											}
										}
									}
								}
							}
						}
					}
				}
			}
		}
	}
}
MOTION
Frames: 9
Frame Time: 0.03333333
6.364163 18.446438 -21.498571 0.000000 0.000000 0.000000 43.691252 -25.848817 10.078703 -51.833448 -11.724770 -4.064293 118.407681 -3.179575 -1.172482 1.854581 -4.290945 -9.741046 14.929670 -22.992946 -43.460989 0.000000 0.000000 0.000000 44.728324 -24.616299 9.256231 -101.780467 -7.568793 -23.948510 108.502288 -9.896317 6.573499 -33.413299 -4.833484 7.656940 -8.864089 -1.686265 -0.651589 0.000000 0.000000 0.000000 42.986919 -27.257577 10.538895 35.863059 7.764558 6.681623 5.138580 2.693929 0.757124 0.360359 -0.706155 2.128181 0.000000 0.000000 0.000000 7.211067 2.385073 1.309298 -9.727101 -3.756334 -0.372813 -20.905266 -15.925674 -7.343497 0.000000 0.000000 0.000000 6.490574 2.333920 0.921106 5.436368 -21.822202 -8.574655 3.036323 0.690925 -3.600098 -26.150697 -18.808524 -38.725267 1.527369 -36.505479 0.492961 0.000000 0.000000 0.000000 5.617091 1.999284 1.567703 -1.195384 28.480202 15.847810 -0.513975 4.078911 -1.662203 -50.929388 47.856069 17.059109 -1.111292 15.288173 -0.007333 0.000000 0.000000 0.000000 
6.547268 18.594944 -21.542498 0.000000 0.000000 0.000000 41.984797 -28.322194 10.611077 -56.341226 -10.531647 -3.316733 120.141033 -3.587917 -1.884094 3.519482 -3.921869 -11.585122 -0.129417 -18.493352 -39.929033 0.000000 0.000000 0.000000 43.427852 -26.091763 9.808868 -100.442071 -8.131864 -24.423527 107.645373 -10.145586 7.912645 -34.658139 -5.322828 7.940839 -9.249754 -1.518481 -0.973882 0.000000 0.000000 0.000000 41.408893 -28.897963 11.023642 35.854497 8.294222 5.762688 5.390736 2.788716 0.623605 0.393959 -0.886577 2.243376 0.000000 0.000000 0.000000 7.422928 2.464294 1.081932 -8.419814 -2.863916 -1.150126 -20.589639 -14.501967 -7.933569 0.000000 0.000000 0.000000 6.736802 2.460958 0.612065 5.748815 -22.619406 -8.986621 2.192400 0.271593 -3.462599 -24.252933 -15.899666 -38.285526 1.678494 -38.323225 0.520008 0.000000 0.000000 0.000000 5.890026 2.156956 1.360927 -0.910116 28.154414 15.366273 -0.226417 3.839610 -1.822110 -48.733570 46.188297 17.006643 -1.053888 18.551741 -0.066038 0.000000 0.000000 0.000000 
6.631186 18.815254 -21.172441 0.000000 0.000000 0.000000 40.398151 -29.757259 10.854984 -59.637503 -8.807990 -2.762999 119.913615 -4.084300 -2.084737 4.737921 -4.641022 -14.360806 -26.289424 -12.905349 -30.958297 0.000000 0.000000 0.000000 42.574396 -28.129550 10.917322 -99.205506 -8.711100 -24.652854 106.894004 -10.427533 9.408780 -35.705869 -6.255407 8.043094 -10.098537 -1.169122 -1.424602 0.000000 0.000000 0.000000 40.392892 -30.171691 11.627766 35.599216 8.866923 4.578058 5.636673 2.926370 0.423955 0.669880 -1.390422 2.347143 0.000000 0.000000 0.000000 7.532698 2.620906 0.778721 -7.178754 -2.014506 -1.974448 -20.181413 -12.958961 -8.314948 0.000000 0.000000 0.000000 6.984945 2.614837 0.269679 6.068763 -23.338058 -9.129935 1.607906 -0.332075 -3.247358 -22.698771 -13.233117 -37.577389 1.632174 -39.794659 0.443563 0.000000 0.000000 0.000000 6.151704 2.384059 1.128772 -0.448994 27.696188 14.501439 0.079693 3.385409 -1.951298 -46.938887 44.827153 17.129776 -1.023405 22.229182 0.009505 0.000000 0.000000 0.000000 
6.600355 19.044195 -20.382711 0.000000 0.000000 0.000000 39.111384 -30.252243 11.038358 -61.709004 -6.520825 -2.412502 117.849791 -4.047329 -1.818735 4.838720 -5.451513 -16.010107 -61.324512 -11.079571 -17.972183 0.000000 0.000000 0.000000 42.295554 -30.268605 12.357822 -97.761645 -9.079896 -24.571836 105.979606 -10.321234 10.602926 -36.403457 -7.542732 8.253995 -11.299525 -0.721580 -1.879937 0.000000 0.000000 0.000000 40.047093 -30.851131 12.388751 35.223221 9.305719 3.200128 5.861719 3.054887 0.195737 0.992184 -1.805886 2.469213 0.000000 0.000000 0.000000 7.554417 2.787458 0.467710 -6.186323 -1.340797 -2.745698 -19.760275 -11.473437 -8.517357 0.000000 0.000000 0.000000 7.190904 2.756664 -0.059291 6.385206 -23.992679 -8.943079 1.268008 -1.007803 -3.079235 -21.594502 -11.010735 -36.474259 1.394964 -41.009566 0.314976 0.000000 0.000000 0.000000 6.360501 2.618578 0.909082 0.124306 27.051084 13.356595 0.489605 2.802644 -2.032037 -45.820126 44.046944 17.486862 -1.090290 25.653410 0.229564 0.000000 0.000000 0.000000 
6.496162 19.277843 -19.251898 0.000000 0.000000 0.000000 38.291536 -29.974606 11.300659 -63.884255 -4.568728 -2.810683 115.178067 -3.058706 -0.936253 3.663754 -5.457474 -16.005444 -88.161876 -13.137557 -9.469694 0.000000 0.000000 0.000000 42.067948 -31.827729 13.624620 -95.685787 -9.141104 -24.442016 104.790729 -9.748014 11.225572 -37.036776 -9.110427 8.199871 -11.839784 -0.258990 -2.157369 0.000000 0.000000 0.000000 40.081063 -30.772167 13.089842 34.920575 9.475544 1.706974 6.031900 3.135959 -0.005437 1.177004 -1.999548 2.253782 0.000000 0.000000 0.000000 7.520333 2.891214 0.208268 -5.671341 -0.948572 -3.374892 -19.451595 -10.134330 -8.573198 0.000000 0.000000 0.000000 7.327907 2.843545 -0.317808 6.691784 -24.666170 -8.393788 1.084355 -1.428210 -2.945293 -20.992749 -9.362480 -34.994512 1.114000 -42.133750 0.240434 0.000000 0.000000 0.000000 6.476014 2.775741 0.763134 0.707574 26.110118 11.907164 1.094929 2.234891 -2.018164 -45.584628 43.998706 18.254341 -1.263393 28.461212 0.529641 0.000000 0.000000 0.000000 
6.333001 19.603535 -17.823671 0.000000 0.000000 0.000000 37.353061 -29.610735 11.523362 -66.556731 -3.484013 -2.962882 113.081411 -1.423414 -0.161173 1.077590 -3.611990 -14.024270 -100.329304 -13.503065 -5.949869 0.000000 0.000000 0.000000 41.571212 -32.359257 14.355429 -92.648429 -8.835983 -24.460960 103.107491 -8.685336 11.199781 -38.069886 -10.870477 7.671852 -11.235055 0.147827 -2.158780 0.000000 0.000000 0.000000 39.908000 -30.177610 13.531146 34.804742 9.303251 0.242065 6.137635 3.125810 -0.138937 1.397477 -1.854691 2.014590 0.000000 0.000000 0.000000 7.477402 2.866311 0.053925 -5.754244 -0.790200 -3.795570 -19.334389 -9.023186 -8.558269 0.000000 0.000000 0.000000 7.411707 2.831479 -0.459818 6.954511 -25.347679 -7.604175 0.952163 -1.389539 -2.936200 -20.842665 -8.426450 -33.248797 0.964980 -43.292184 0.329955 0.000000 0.000000 0.000000 6.511625 2.799729 0.707795 1.219057 24.830979 10.247200 1.779808 1.826815 -1.980577 -46.502250 44.559714 19.698926 -1.515933 30.602915 0.838485 0.000000 0.000000 0.000000 
6.155441 20.033300 -16.356806 0.000000 0.000000 0.000000 36.414057 -29.295965 11.798809 -70.765411 -3.445538 -1.919397 112.069163 0.342615 0.322898 -2.440035 -0.255335 -11.968108 -100.099332 -10.787827 -4.781070 0.000000 0.000000 0.000000 40.488576 -32.041749 14.526866 -88.289921 -8.236132 -24.885222 100.801113 -7.118085 10.537743 -39.518614 -12.624298 7.092595 -9.997217 0.458769 -1.961904 0.000000 0.000000 0.000000 39.442560 -29.361037 13.699868 34.946513 8.790292 -1.048934 6.142200 3.010896 -0.207162 1.369417 -1.222575 1.703588 0.000000 0.000000 0.000000 7.449953 2.701064 0.005994 -6.393261 -0.787874 -3.986361 -19.430961 -8.081563 -8.516425 0.000000 0.000000 0.000000 7.448034 2.711531 -0.483311 7.109555 -26.035044 -6.798045 0.775321 -0.961499 -3.124851 -20.992115 -8.161149 -31.371523 1.085955 -44.462319 0.631997 0.000000 0.000000 0.000000 6.454235 2.661296 0.695153 1.603098 23.192449 8.368519 2.290209 1.601560 -1.856490 -48.580588 45.488503 21.979117 -1.711085 32.196569 1.028151 0.000000 0.000000 0.000000 
5.997395 20.583496 -14.960432 0.000000 0.000000 0.000000 35.405522 -28.875130 12.151465 -75.732680 -4.726487 0.134936 112.063645 1.888524 0.612566 -5.756249 3.728447 -10.914568 -90.294923 -6.047776 -5.231650 0.000000 0.000000 0.000000 38.842500 -31.041137 14.352831 -82.549899 -7.507367 -25.866823 97.948519 -5.036613 9.335889 -41.047145 -14.345810 7.059804 -8.766226 0.693035 -1.768516 0.000000 0.000000 0.000000 38.674795 -28.513156 13.738237 35.324444 8.002776 -2.045173 6.051937 2.809074 -0.252889 1.224164 -0.470683 1.388906 0.000000 0.000000 0.000000 7.436938 2.422772 0.018835 -7.412271 -0.871643 -3.944602 -19.712327 -7.211377 -8.487056 0.000000 0.000000 0.000000 7.480657 2.485839 -0.441767 7.133544 -26.720455 -6.072292 0.606391 -0.136117 -3.327157 -21.314828 -8.590933 -29.417792 1.493490 -45.439432 1.086027 0.000000 0.000000 0.000000 6.367274 2.389498 0.678526 1.858054 21.279471 6.259863 2.434478 1.635643 -1.813146 -51.606471 46.394087 25.050415 -1.781640 33.498226 1.056694 0.000000 0.000000 0.000000 
5.776876 21.196720 -13.745630 0.000000 0.000000 0.000000 34.219378 -28.312012 12.628299 -80.823561 -6.628408 3.469285 112.065352 2.592999 1.035412 -7.999654 6.952804 -11.890992 -74.586267 -1.250359 -6.826172 0.000000 0.000000 0.000000 36.988326 -29.894498 14.292774 -75.741122 -6.881139 -27.026447 94.477779 -2.512587 7.839789 -42.529160 -15.970598 7.835039 -8.066873 0.844637 -1.712027 0.000000 0.000000 0.000000 37.585168 -27.687760 13.750103 35.862455 6.977570 -2.700116 5.905001 2.546925 -0.348576 1.031277 0.104209 1.082820 0.000000 0.000000 0.000000 7.446520 2.090311 0.033993 -8.474580 -1.007934 -3.666632 -20.040571 -6.354740 -8.455006 0.000000 0.000000 0.000000 7.494657 2.187783 -0.404399 7.017940 -27.400830 -5.448317 0.507826 0.749073 -3.404040 -21.708998 -9.678943 -27.266738 2.038134 -45.926363 1.541235 0.000000 0.000000 0.000000 6.306829 2.045193 0.594103 2.037685 19.322854 3.984208 2.163508 1.961510 -1.680647 -55.001229 47.008019 28.370774 -1.677402 34.503394 0.915090 0.000000 0.000000 0.000000 
